<?xml version="1.0" ?><svg viewBox="0 0 24 24" xmlns="http://www.w3.org/2000/svg"><title/><g data-name="Google Keyboard" id="Google_Keyboard"><g data-name="&lt;Group&gt;" id="_Group_"><path d="M6.66,9.5H3A1.5,1.5,0,0,0,1.5,11V22A1.5,1.5,0,0,0,3,23.5H21A1.5,1.5,0,0,0,22.5,22V11A1.5,1.5,0,0,0,21,9.5H17.34" data-name="&lt;Path&gt;" id="_Path_" style="fill:none;stroke:#303c42;stroke-linecap:round;stroke-linejoin:round"/><rect data-name="&lt;Rectangle&gt;" height="2" id="_Rectangle_" style="fill:none;stroke:#303c42;stroke-linecap:round;stroke-linejoin:round" width="12" x="6" y="19.5"/><rect data-name="&lt;Rectangle&gt;" height="2" id="_Rectangle_2" style="fill:none;stroke:#303c42;stroke-linecap:round;stroke-linejoin:round" width="2" x="3.5" y="15.5"/><rect data-name="&lt;Path&gt;" height="2" id="_Path_2" style="fill:none;stroke:#303c42;stroke-linecap:round;stroke-linejoin:round" width="2" x="7.25" y="15.5"/><rect data-name="&lt;Rectangle&gt;" height="2" id="_Rectangle_3" style="fill:none;stroke:#303c42;stroke-linecap:round;stroke-linejoin:round" width="2" x="11" y="15.5"/><rect data-name="&lt;Path&gt;" height="2" id="_Path_3" style="fill:none;stroke:#303c42;stroke-linecap:round;stroke-linejoin:round" width="2" x="14.75" y="15.5"/><rect data-name="&lt;Rectangle&gt;" height="2" id="_Rectangle_4" style="fill:none;stroke:#303c42;stroke-linecap:round;stroke-linejoin:round" width="2" x="18.5" y="15.5"/><rect data-name="&lt;Rectangle&gt;" height="2" id="_Rectangle_5" style="fill:none;stroke:#303c42;stroke-linecap:round;stroke-linejoin:round" width="2" x="3.5" y="11.5"/><polyline data-name="&lt;Path&gt;" id="_Path_4" points="8.33 11.5 7.25 11.5 7.25 13.5 9.25 13.5 9.25 12.25" style="fill:none;stroke:#303c42;stroke-linecap:round;stroke-linejoin:round"/><polyline data-name="&lt;Path&gt;" id="_Path_5" points="14.75 12.25 14.75 13.5 16.75 13.5 16.75 11.5 15.67 11.5" style="fill:none;stroke:#303c42;stroke-linecap:round;stroke-linejoin:round"/><rect data-name="&lt;Rectangle&gt;" height="2" id="_Rectangle_6" style="fill:none;stroke:#303c42;stroke-linecap:round;stroke-linejoin:round" width="2" x="18.5" y="11.5"/><path d="M16.4,10.9,12,14.5,7.6,10.9A3,3,0,0,1,6.5,8.58V2A1.5,1.5,0,0,1,8,.5h8A1.5,1.5,0,0,1,17.5,2V8.58A3,3,0,0,1,16.4,10.9Z" data-name="&lt;Path&gt;" id="_Path_6" style="fill:none;stroke:#303c42;stroke-linecap:round;stroke-linejoin:round"/><path d="M13.5,4a2.5,2.5,0,1,0,1,2h-2" data-name="&lt;Path&gt;" id="_Path_7" style="fill:none;stroke:#303c42;stroke-linecap:round;stroke-linejoin:round"/></g></g></svg>